<svg width="302" height="305" viewBox="0 0 302 305" fill="none" xmlns="http://www.w3.org/2000/svg">
<ellipse cx="151" cy="153.5" rx="139" ry="140.5" fill="#235196"/>
<path fill-rule="evenodd" clip-rule="evenodd" d="M150.5 53.75C95.99 53.75 51.75 97.99 51.75 152.5C51.75 207.01 95.99 251.25 150.5 251.25C205.01 251.25 249.25 207.01 249.25 152.5C249.25 97.99 205.01 53.75 150.5 53.75ZM150.5 83.375C166.893 83.375 180.125 96.6075 180.125 113C180.125 129.393 166.893 142.625 150.5 142.625C134.107 142.625 120.875 129.393 120.875 113C120.875 96.6075 134.107 83.375 150.5 83.375ZM91.25 191.803C103.989 210.96 125.812 223.6 150.5 223.6C175.188 223.6 197.011 210.96 209.75 191.803C209.454 172.151 170.151 161.388 150.5 161.388C130.75 161.388 91.5462 172.151 91.25 191.803Z" fill="white"/>
</svg>
